0
SECTION
2
HEADER
9
$INSUNITS
70
4
9
$ACADVER
1
AC1014
9
$HANDSEED
5
FFFF
0
ENDSEC
0
SECTION
2
TABLES
0
TABLE
2
VPORT
5
8
100
AcDbSymbolTable
0
ENDTAB
0
TABLE
2
LTYPE
5
5
100
AcDbSymbolTable
0
LTYPE
5
14
100
AcDbSymbolTableRecord
100
AcDbLinetypeTableRecord
2
BYBLOCK
70
0
0
LTYPE
5
15
100
AcDbSymbolTableRecord
100
AcDbLinetypeTableRecord
2
BYLAYER
70
0
0
ENDTAB
0
TABLE
2
LAYER
5
2
100
AcDbSymbolTable
70
2
0
LAYER
5
50
100
AcDbSymbolTableRecord
100
AcDbLayerTableRecord
2
0
70
0
6
CONTINUOUS
0
ENDTAB
0
TABLE
2
STYLE
5
3
100
AcDbSymbolTable
70
1
0
STYLE
5
11
100
AcDbSymbolTableRecord
100
AcDbTextStyleTableRecord
2
STANDARD
70
0
0
ENDTAB
0
TABLE
2
VIEW
5
6
100
AcDbSymbolTable
70
0
0
ENDTAB
0
TABLE
2
UCS
5
7
100
AcDbSymbolTable
70
0
0
ENDTAB
0
TABLE
2
APPID
5
9
100
AcDbSymbolTable
70
2
0
APPID
5
12
100
AcDbSymbolTableRecord
100
AcDbRegAppTableRecord
2
ACAD
70
0
0
ENDTAB
0
TABLE
2
DIMSTYLE
5
A
100
AcDbSymbolTable
70
1
0
ENDTAB
0
TABLE
2
BLOCK_RECORD
5
1
100
AcDbSymbolTable
70
1
0
BLOCK_RECORD
5
1F
100
AcDbSymbolTableRecord
100
AcDbBlockTableRecord
2
*MODEL_SPACE
0
BLOCK_RECORD
5
1B
100
AcDbSymbolTableRecord
100
AcDbBlockTableRecord
2
*PAPER_SPACE
0
ENDTAB
0
ENDSEC
0
SECTION
2
BLOCKS
0
BLOCK
5
20
100
AcDbEntity
100
AcDbBlockBegin
2
*MODEL_SPACE
0
ENDBLK
5
21
100
AcDbEntity
100
AcDbBlockEnd
0
BLOCK
5
1C
100
AcDbEntity
100
AcDbBlockBegin
2
*PAPER_SPACE
0
ENDBLK
5
1D
100
AcDbEntity
100
AcDbBlockEnd
0
ENDSEC
0
SECTION
2
ENTITIES
0
LWPOLYLINE
5
100
100
AcDbEntity
8
0
100
AcDbPolyline
90
8
70
1
43
0.0
10
-81.583369312111742
20
-115.38307345282895
10
-115.38307345282888
20
-81.583369312111529
10
-115.38307345282888
20
81.583369312111529
10
-81.583369312111742
20
115.38307345282895
10
81.583369312111742
20
115.38307345282895
10
115.38307345282888
20
81.583369312111529
10
115.38307345282888
20
-81.583369312111529
10
81.583369312111742
20
-115.38307345282895
0
CIRCLE
5
101
100
AcDbEntity
8
0
100
AcDbCircle
10
3.8635761256955402e-13
20
-107.76307345282902
30
0
40
1.7779999999999903
0
CIRCLE
5
102
100
AcDbEntity
8
0
100
AcDbCircle
10
3.3306690738754701e-13
20
-94.292689271225214
30
0
40
1.3525499999999899
0
CIRCLE
5
103
100
AcDbEntity
8
0
100
AcDbCircle
10
-2.0872192862952898e-13
20
-80.822305089621395
30
0
40
1.7779999999999903
0
CIRCLE
5
104
100
AcDbEntity
8
0
100
AcDbCircle
10
1.9539925233402803e-13
20
-67.351920908017803
30
0
40
1.3525499999999899
0
CIRCLE
5
105
100
AcDbEntity
8
0
100
AcDbCircle
10
-2.0872192862952898e-13
20
-53.881536726414197
30
0
40
1.7779999999999903
0
CIRCLE
5
106
100
AcDbEntity
8
0
100
AcDbCircle
10
5.3290705182007501e-14
20
-40.411152544810996
30
0
40
1.3525499999999899
0
CIRCLE
5
107
100
AcDbEntity
8
0
100
AcDbCircle
10
-1.3322676295501901e-14
20
-26.940768363206899
30
0
40
1.7779999999999903
0
CIRCLE
5
108
100
AcDbEntity
8
0
100
AcDbCircle
10
5.3290705182007501e-14
20
-13.470384181603301
30
0
40
1.3525499999999899
0
CIRCLE
5
109
100
AcDbEntity
8
0
100
AcDbCircle
10
0
20
0
30
0
40
1.7779999999999903
0
CIRCLE
5
110
100
AcDbEntity
8
0
100
AcDbCircle
10
13.4703841816037
20
1.7319479184152397e-13
30
0
40
1.3525499999999999
0
CIRCLE
5
111
100
AcDbEntity
8
0
100
AcDbCircle
10
26.940768363206399
20
-1.06581410364015e-13
30
0
40
1.7779999999999903
0
CIRCLE
5
112
100
AcDbEntity
8
0
100
AcDbCircle
10
40.411152544810292
20
1.7319479184152397e-13
30
0
40
1.3525499999999999
0
CIRCLE
5
113
100
AcDbEntity
8
0
100
AcDbCircle
10
53.881536726414197
20
-1.06581410364015e-13
30
0
40
1.7779999999999903
0
CIRCLE
5
114
100
AcDbEntity
8
0
100
AcDbCircle
10
67.351920908017703
20
1.7763568394002502e-13
30
0
40
1.3525499999999899
0
CIRCLE
5
115
100
AcDbEntity
8
0
100
AcDbCircle
10
26.940768363207003
20
-107.76307345282902
30
0
40
1.7779999999999903
0
CIRCLE
5
116
100
AcDbEntity
8
0
100
AcDbCircle
10
26.940768363206899
20
-94.292689271225214
30
0
40
1.3525499999999999
0
CIRCLE
5
117
100
AcDbEntity
8
0
100
AcDbCircle
10
26.940768363206399
20
-80.822305089621395
30
0
40
1.7779999999999903
0
CIRCLE
5
118
100
AcDbEntity
8
0
100
AcDbCircle
10
26.9407683632068
20
-67.351920908017803
30
0
40
1.3525499999999899
0
CIRCLE
5
119
100
AcDbEntity
8
0
100
AcDbCircle
10
26.940768363206399
20
-53.881536726414197
30
0
40
1.7779999999999903
0
CIRCLE
5
120
100
AcDbEntity
8
0
100
AcDbCircle
10
26.940768363206701
20
-40.411152544810996
30
0
40
1.3525499999999999
0
CIRCLE
5
121
100
AcDbEntity
8
0
100
AcDbCircle
10
26.940768363206601
20
-26.940768363206899
30
0
40
1.7779999999999903
0
CIRCLE
5
122
100
AcDbEntity
8
0
100
AcDbCircle
10
26.940768363206701
20
-13.470384181603199
30
0
40
1.3525499999999999
0
CIRCLE
5
123
100
AcDbEntity
8
0
100
AcDbCircle
10
107.76307345282902
20
-13.470384181603301
30
0
40
1.3525499999999899
0
CIRCLE
5
124
100
AcDbEntity
8
0
100
AcDbCircle
10
40.411152544810292
20
-13.4703841816037
30
0
40
1.7779999999999903
0
CIRCLE
5
125
100
AcDbEntity
8
0
100
AcDbCircle
10
67.351920908017306
20
-13.470384181603501
30
0
40
1.7779999999999903
0
CIRCLE
5
126
100
AcDbEntity
8
0
100
AcDbCircle
10
94.292689271225086
20
-13.470384181603301
30
0
40
1.7779999999999903
0
CIRCLE
5
127
100
AcDbEntity
8
0
100
AcDbCircle
10
53.881536726413906
20
-13.470384181603301
30
0
40
1.3525499999999899
0
CIRCLE
5
128
100
AcDbEntity
8
0
100
AcDbCircle
10
80.822305089621395
20
-13.470384181603301
30
0
40
1.3525500000000099
0
CIRCLE
5
129
100
AcDbEntity
8
0
100
AcDbCircle
10
94.292689271225086
20
-80.822305089621494
30
0
40
1.3525500000000099
0
CIRCLE
5
130
100
AcDbEntity
8
0
100
AcDbCircle
10
80.822305089621494
20
-94.292689271225214
30
0
40
1.3525500000000099
0
CIRCLE
5
131
100
AcDbEntity
8
0
100
AcDbCircle
10
67.351920908017703
20
-107.76307345282902
30
0
40
1.3525499999999899
0
CIRCLE
5
132
100
AcDbEntity
8
0
100
AcDbCircle
10
67.351920908017703
20
-80.822305089621494
30
0
40
1.3525499999999899
0
CIRCLE
5
133
100
AcDbEntity
8
0
100
AcDbCircle
10
107.76307345282902
20
-67.351920908018002
30
0
40
1.3525499999999899
0
CIRCLE
5
134
100
AcDbEntity
8
0
100
AcDbCircle
10
40.411152544810292
20
-107.76307345282902
30
0
40
1.3525499999999999
0
CIRCLE
5
135
100
AcDbEntity
8
0
100
AcDbCircle
10
40.411152544810292
20
-80.822305089621494
30
0
40
1.3525499999999999
0
CIRCLE
5
136
100
AcDbEntity
8
0
100
AcDbCircle
10
53.881536726413799
20
-67.351920908017803
30
0
40
1.3525499999999899
0
CIRCLE
5
137
100
AcDbEntity
8
0
100
AcDbCircle
10
94.292689271225086
20
-53.881536726414403
30
0
40
1.3525499999999899
0
CIRCLE
5
138
100
AcDbEntity
8
0
100
AcDbCircle
10
107.76307345282902
20
-40.411152544810996
30
0
40
1.3525499999999899
0
CIRCLE
5
139
100
AcDbEntity
8
0
100
AcDbCircle
10
40.411152544810292
20
-53.881536726414403
30
0
40
1.3525499999999999
0
CIRCLE
5
140
100
AcDbEntity
8
0
100
AcDbCircle
10
40.411152544810506
20
-94.292689271225612
30
0
40
1.7779999999999903
0
CIRCLE
5
141
100
AcDbEntity
8
0
100
AcDbCircle
10
40.411152544810506
20
-67.351920908018101
30
0
40
1.7779999999999903
0
CIRCLE
5
142
100
AcDbEntity
8
0
100
AcDbCircle
10
40.411152544810292
20
-40.411152544810598
30
0
40
1.7779999999999903
0
CIRCLE
5
143
100
AcDbEntity
8
0
100
AcDbCircle
10
67.351920908017306
20
-40.411152544810804
30
0
40
1.7779999999999903
0
CIRCLE
5
144
100
AcDbEntity
8
0
100
AcDbCircle
10
94.292689271225086
20
-40.411152544810996
30
0
40
1.7779999999999903
0
CIRCLE
5
145
100
AcDbEntity
8
0
100
AcDbCircle
10
94.292689271225299
20
-94.292689271225214
30
0
40
1.7779999999999903
0
CIRCLE
5
146
100
AcDbEntity
8
0
100
AcDbCircle
10
94.292689271225214
20
-67.351920908017902
30
0
40
1.7779999999999903
0
CIRCLE
5
147
100
AcDbEntity
8
0
100
AcDbCircle
10
80.822305089621494
20
-80.822305089621395
30
0
40
1.7779999999999903
0
CIRCLE
5
148
100
AcDbEntity
8
0
100
AcDbCircle
10
107.76307345282902
20
-80.822305089621395
30
0
40
1.7779999999999903
0
CIRCLE
5
149
100
AcDbEntity
8
0
100
AcDbCircle
10
107.76307345282902
20
-53.881536726414801
30
0
40
1.7779999999999903
0
CIRCLE
5
150
100
AcDbEntity
8
0
100
AcDbCircle
10
80.822305089621395
20
-53.881536726414801
30
0
40
1.7779999999999903
0
CIRCLE
5
151
100
AcDbEntity
8
0
100
AcDbCircle
10
80.822305089621494
20
-107.76307345282902
30
0
40
1.7779999999999903
0
CIRCLE
5
152
100
AcDbEntity
8
0
100
AcDbCircle
10
67.351920908017306
20
-67.351920908017604
30
0
40
1.7779999999999903
0
CIRCLE
5
153
100
AcDbEntity
8
0
100
AcDbCircle
10
67.351920908017405
20
-94.292689271225001
30
0
40
1.7779999999999903
0
CIRCLE
5
154
100
AcDbEntity
8
0
100
AcDbCircle
10
53.881536726414197
20
-80.822305089621395
30
0
40
1.7779999999999903
0
CIRCLE
5
155
100
AcDbEntity
8
0
100
AcDbCircle
10
53.881536726414197
20
-53.881536726414197
30
0
40
1.7779999999999903
0
CIRCLE
5
156
100
AcDbEntity
8
0
100
AcDbCircle
10
53.8815367264136
20
-107.76307345282902
30
0
40
1.7779999999999903
0
CIRCLE
5
157
100
AcDbEntity
8
0
100
AcDbCircle
10
53.881536726413906
20
-40.411152544810996
30
0
40
1.3525499999999899
0
CIRCLE
5
158
100
AcDbEntity
8
0
100
AcDbCircle
10
80.822305089621395
20
-40.411152544810996
30
0
40
1.3525500000000099
0
CIRCLE
5
159
100
AcDbEntity
8
0
100
AcDbCircle
10
67.351920908017703
20
-53.881536726414403
30
0
40
1.3525499999999899
0
CIRCLE
5
160
100
AcDbEntity
8
0
100
AcDbCircle
10
53.8815367264137
20
-94.292689271225214
30
0
40
1.3525499999999899
0
CIRCLE
5
161
100
AcDbEntity
8
0
100
AcDbCircle
10
80.822305089621494
20
-67.351920908018101
30
0
40
1.3525500000000099
0
CIRCLE
5
162
100
AcDbEntity
8
0
100
AcDbCircle
10
94.292689271225086
20
-26.940768363207201
30
0
40
1.3525500000000099
0
CIRCLE
5
163
100
AcDbEntity
8
0
100
AcDbCircle
10
67.351920908017703
20
-26.940768363207201
30
0
40
1.3525499999999899
0
CIRCLE
5
164
100
AcDbEntity
8
0
100
AcDbCircle
10
40.411152544810292
20
-26.940768363207201
30
0
40
1.3525499999999999
0
CIRCLE
5
165
100
AcDbEntity
8
0
100
AcDbCircle
10
80.822305089621395
20
-26.940768363207297
30
0
40
1.7779999999999903
0
CIRCLE
5
166
100
AcDbEntity
8
0
100
AcDbCircle
10
53.881536726414005
20
-26.940768363206899
30
0
40
1.7779999999999903
0
CIRCLE
5
167
100
AcDbEntity
8
0
100
AcDbCircle
10
107.76307345282902
20
-26.940768363207201
30
0
40
1.7779999999999903
0
CIRCLE
5
168
100
AcDbEntity
8
0
100
AcDbCircle
10
13.4703841816037
20
-13.4703841816037
30
0
40
1.7779999999999903
0
CIRCLE
5
169
100
AcDbEntity
8
0
100
AcDbCircle
10
13.4703841816037
20
-107.76307345282902
30
0
40
1.3525499999999999
0
CIRCLE
5
170
100
AcDbEntity
8
0
100
AcDbCircle
10
13.4703841816037
20
-80.822305089621494
30
0
40
1.3525499999999999
0
CIRCLE
5
171
100
AcDbEntity
8
0
100
AcDbCircle
10
13.4703841816037
20
-53.881536726414403
30
0
40
1.3525499999999999
0
CIRCLE
5
172
100
AcDbEntity
8
0
100
AcDbCircle
10
13.470384181603405
20
-94.292689271225612
30
0
40
1.7779999999999903
0
CIRCLE
5
173
100
AcDbEntity
8
0
100
AcDbCircle
10
13.470384181603405
20
-67.351920908018101
30
0
40
1.7779999999999903
0
CIRCLE
5
174
100
AcDbEntity
8
0
100
AcDbCircle
10
13.4703841816037
20
-40.411152544810598
30
0
40
1.7779999999999903
0
CIRCLE
5
175
100
AcDbEntity
8
0
100
AcDbCircle
10
13.4703841816037
20
-26.940768363207201
30
0
40
1.3525499999999999
0
CIRCLE
5
176
100
AcDbEntity
8
0
100
AcDbCircle
10
80.822305089621395
20
4.7961634663806803e-13
30
0
40
1.7779999999999903
0
CIRCLE
5
177
100
AcDbEntity
8
0
100
AcDbCircle
10
3.8635761256955402e-13
20
107.76307345282902
30
0
40
1.7779999999999903
0
CIRCLE
5
178
100
AcDbEntity
8
0
100
AcDbCircle
10
3.3306690738754701e-13
20
94.292689271225214
30
0
40
1.3525499999999899
0
CIRCLE
5
179
100
AcDbEntity
8
0
100
AcDbCircle
10
-2.0872192862952898e-13
20
80.822305089621395
30
0
40
1.7779999999999903
0
CIRCLE
5
180
100
AcDbEntity
8
0
100
AcDbCircle
10
1.9539925233402803e-13
20
67.351920908017803
30
0
40
1.3525499999999899
0
CIRCLE
5
181
100
AcDbEntity
8
0
100
AcDbCircle
10
-2.0872192862952898e-13
20
53.881536726414197
30
0
40
1.7779999999999903
0
CIRCLE
5
182
100
AcDbEntity
8
0
100
AcDbCircle
10
5.3290705182007501e-14
20
40.411152544810996
30
0
40
1.3525499999999899
0
CIRCLE
5
183
100
AcDbEntity
8
0
100
AcDbCircle
10
-1.3322676295501901e-14
20
26.940768363206899
30
0
40
1.7779999999999903
0
CIRCLE
5
184
100
AcDbEntity
8
0
100
AcDbCircle
10
26.940768363207003
20
107.76307345282902
30
0
40
1.7779999999999903
0
CIRCLE
5
185
100
AcDbEntity
8
0
100
AcDbCircle
10
26.940768363206899
20
94.292689271225214
30
0
40
1.3525499999999999
0
CIRCLE
5
186
100
AcDbEntity
8
0
100
AcDbCircle
10
26.940768363206399
20
80.822305089621395
30
0
40
1.7779999999999903
0
CIRCLE
5
187
100
AcDbEntity
8
0
100
AcDbCircle
10
26.9407683632068
20
67.351920908017803
30
0
40
1.3525499999999899
0
CIRCLE
5
188
100
AcDbEntity
8
0
100
AcDbCircle
10
26.940768363206399
20
53.881536726414197
30
0
40
1.7779999999999903
0
CIRCLE
5
189
100
AcDbEntity
8
0
100
AcDbCircle
10
26.940768363206701
20
40.411152544810996
30
0
40
1.3525499999999999
0
CIRCLE
5
190
100
AcDbEntity
8
0
100
AcDbCircle
10
26.940768363206601
20
26.940768363206899
30
0
40
1.7779999999999903
0
CIRCLE
5
191
100
AcDbEntity
8
0
100
AcDbCircle
10
26.940768363206701
20
13.470384181603199
30
0
40
1.3525499999999999
0
CIRCLE
5
192
100
AcDbEntity
8
0
100
AcDbCircle
10
107.76307345282902
20
13.470384181603301
30
0
40
1.3525499999999899
0
CIRCLE
5
193
100
AcDbEntity
8
0
100
AcDbCircle
10
40.411152544810292
20
13.4703841816037
30
0
40
1.7779999999999903
0
CIRCLE
5
194
100
AcDbEntity
8
0
100
AcDbCircle
10
67.351920908017306
20
13.470384181603501
30
0
40
1.7779999999999903
0
CIRCLE
5
195
100
AcDbEntity
8
0
100
AcDbCircle
10
94.292689271225086
20
13.470384181603301
30
0
40
1.7779999999999903
0
CIRCLE
5
196
100
AcDbEntity
8
0
100
AcDbCircle
10
53.881536726413906
20
13.470384181603301
30
0
40
1.3525499999999899
0
CIRCLE
5
197
100
AcDbEntity
8
0
100
AcDbCircle
10
80.822305089621395
20
13.470384181603301
30
0
40
1.3525500000000099
0
CIRCLE
5
198
100
AcDbEntity
8
0
100
AcDbCircle
10
94.292689271225086
20
80.822305089621494
30
0
40
1.3525500000000099
0
CIRCLE
5
199
100
AcDbEntity
8
0
100
AcDbCircle
10
80.822305089621494
20
94.292689271225214
30
0
40
1.3525500000000099
0
CIRCLE
5
200
100
AcDbEntity
8
0
100
AcDbCircle
10
67.351920908017703
20
107.76307345282902
30
0
40
1.3525499999999899
0
CIRCLE
5
201
100
AcDbEntity
8
0
100
AcDbCircle
10
67.351920908017703
20
80.822305089621494
30
0
40
1.3525499999999899
0
CIRCLE
5
202
100
AcDbEntity
8
0
100
AcDbCircle
10
107.76307345282902
20
67.351920908018002
30
0
40
1.3525499999999899
0
CIRCLE
5
203
100
AcDbEntity
8
0
100
AcDbCircle
10
40.411152544810292
20
107.76307345282902
30
0
40
1.3525499999999999
0
CIRCLE
5
204
100
AcDbEntity
8
0
100
AcDbCircle
10
40.411152544810292
20
80.822305089621494
30
0
40
1.3525499999999999
0
CIRCLE
5
205
100
AcDbEntity
8
0
100
AcDbCircle
10
53.881536726413799
20
67.351920908017803
30
0
40
1.3525499999999899
0
CIRCLE
5
206
100
AcDbEntity
8
0
100
AcDbCircle
10
94.292689271225086
20
53.881536726414403
30
0
40
1.3525499999999899
0
CIRCLE
5
207
100
AcDbEntity
8
0
100
AcDbCircle
10
107.76307345282902
20
40.411152544810996
30
0
40
1.3525499999999899
0
CIRCLE
5
208
100
AcDbEntity
8
0
100
AcDbCircle
10
40.411152544810292
20
53.881536726414403
30
0
40
1.3525499999999999
0
CIRCLE
5
209
100
AcDbEntity
8
0
100
AcDbCircle
10
40.411152544810506
20
94.292689271225612
30
0
40
1.7779999999999903
0
CIRCLE
5
210
100
AcDbEntity
8
0
100
AcDbCircle
10
40.411152544810506
20
67.351920908018101
30
0
40
1.7779999999999903
0
CIRCLE
5
211
100
AcDbEntity
8
0
100
AcDbCircle
10
40.411152544810292
20
40.411152544810598
30
0
40
1.7779999999999903
0
CIRCLE
5
212
100
AcDbEntity
8
0
100
AcDbCircle
10
67.351920908017306
20
40.411152544810804
30
0
40
1.7779999999999903
0
CIRCLE
5
213
100
AcDbEntity
8
0
100
AcDbCircle
10
94.292689271225086
20
40.411152544810996
30
0
40
1.7779999999999903
0
CIRCLE
5
214
100
AcDbEntity
8
0
100
AcDbCircle
10
94.292689271225299
20
94.292689271225214
30
0
40
1.7779999999999903
0
CIRCLE
5
215
100
AcDbEntity
8
0
100
AcDbCircle
10
94.292689271225214
20
67.351920908017902
30
0
40
1.7779999999999903
0
CIRCLE
5
216
100
AcDbEntity
8
0
100
AcDbCircle
10
80.822305089621494
20
80.822305089621395
30
0
40
1.7779999999999903
0
CIRCLE
5
217
100
AcDbEntity
8
0
100
AcDbCircle
10
107.76307345282902
20
80.822305089621395
30
0
40
1.7779999999999903
0
CIRCLE
5
218
100
AcDbEntity
8
0
100
AcDbCircle
10
107.76307345282902
20
53.881536726414801
30
0
40
1.7779999999999903
0
CIRCLE
5
219
100
AcDbEntity
8
0
100
AcDbCircle
10
80.822305089621395
20
53.881536726414801
30
0
40
1.7779999999999903
0
CIRCLE
5
220
100
AcDbEntity
8
0
100
AcDbCircle
10
80.822305089621494
20
107.76307345282902
30
0
40
1.7779999999999903
0
CIRCLE
5
221
100
AcDbEntity
8
0
100
AcDbCircle
10
67.351920908017306
20
67.351920908017604
30
0
40
1.7779999999999903
0
CIRCLE
5
222
100
AcDbEntity
8
0
100
AcDbCircle
10
67.351920908017405
20
94.292689271225001
30
0
40
1.7779999999999903
0
CIRCLE
5
223
100
AcDbEntity
8
0
100
AcDbCircle
10
53.881536726414197
20
80.822305089621395
30
0
40
1.7779999999999903
0
CIRCLE
5
224
100
AcDbEntity
8
0
100
AcDbCircle
10
53.881536726414197
20
53.881536726414197
30
0
40
1.7779999999999903
0
CIRCLE
5
225
100
AcDbEntity
8
0
100
AcDbCircle
10
53.8815367264136
20
107.76307345282902
30
0
40
1.7779999999999903
0
CIRCLE
5
226
100
AcDbEntity
8
0
100
AcDbCircle
10
53.881536726413906
20
40.411152544810996
30
0
40
1.3525499999999899
0
CIRCLE
5
227
100
AcDbEntity
8
0
100
AcDbCircle
10
80.822305089621395
20
40.411152544810996
30
0
40
1.3525500000000099
0
CIRCLE
5
228
100
AcDbEntity
8
0
100
AcDbCircle
10
67.351920908017703
20
53.881536726414403
30
0
40
1.3525499999999899
0
CIRCLE
5
229
100
AcDbEntity
8
0
100
AcDbCircle
10
53.8815367264137
20
94.292689271225214
30
0
40
1.3525499999999899
0
CIRCLE
5
230
100
AcDbEntity
8
0
100
AcDbCircle
10
80.822305089621494
20
67.351920908018101
30
0
40
1.3525500000000099
0
CIRCLE
5
231
100
AcDbEntity
8
0
100
AcDbCircle
10
94.292689271225086
20
26.940768363207201
30
0
40
1.3525500000000099
0
CIRCLE
5
232
100
AcDbEntity
8
0
100
AcDbCircle
10
67.351920908017703
20
26.940768363207201
30
0
40
1.3525499999999899
0
CIRCLE
5
233
100
AcDbEntity
8
0
100
AcDbCircle
10
40.411152544810292
20
26.940768363207201
30
0
40
1.3525499999999999
0
CIRCLE
5
234
100
AcDbEntity
8
0
100
AcDbCircle
10
80.822305089621395
20
26.940768363207297
30
0
40
1.7779999999999903
0
CIRCLE
5
235
100
AcDbEntity
8
0
100
AcDbCircle
10
53.881536726414005
20
26.940768363206899
30
0
40
1.7779999999999903
0
CIRCLE
5
236
100
AcDbEntity
8
0
100
AcDbCircle
10
107.76307345282902
20
26.940768363207201
30
0
40
1.7779999999999903
0
CIRCLE
5
237
100
AcDbEntity
8
0
100
AcDbCircle
10
13.4703841816037
20
13.4703841816037
30
0
40
1.7779999999999903
0
CIRCLE
5
238
100
AcDbEntity
8
0
100
AcDbCircle
10
13.4703841816037
20
107.76307345282902
30
0
40
1.3525499999999999
0
CIRCLE
5
239
100
AcDbEntity
8
0
100
AcDbCircle
10
13.4703841816037
20
80.822305089621494
30
0
40
1.3525499999999999
0
CIRCLE
5
240
100
AcDbEntity
8
0
100
AcDbCircle
10
13.4703841816037
20
53.881536726414403
30
0
40
1.3525499999999999
0
CIRCLE
5
241
100
AcDbEntity
8
0
100
AcDbCircle
10
13.470384181603405
20
94.292689271225612
30
0
40
1.7779999999999903
0
CIRCLE
5
242
100
AcDbEntity
8
0
100
AcDbCircle
10
13.470384181603405
20
67.351920908018101
30
0
40
1.7779999999999903
0
CIRCLE
5
243
100
AcDbEntity
8
0
100
AcDbCircle
10
13.4703841816037
20
40.411152544810598
30
0
40
1.7779999999999903
0
CIRCLE
5
244
100
AcDbEntity
8
0
100
AcDbCircle
10
13.4703841816037
20
26.940768363207201
30
0
40
1.3525499999999999
0
CIRCLE
5
245
100
AcDbEntity
8
0
100
AcDbCircle
10
5.3290705182007501e-14
20
13.470384181603301
30
0
40
1.3525499999999899
0
CIRCLE
5
246
100
AcDbEntity
8
0
100
AcDbCircle
10
-94.292689271225086
20
-1.6431300764452297e-13
30
0
40
1.3525499999999899
0
CIRCLE
5
247
100
AcDbEntity
8
0
100
AcDbCircle
10
-107.76307345282902
20
-4.7961634663806803e-13
30
0
40
1.7779999999999903
0
CIRCLE
5
248
100
AcDbEntity
8
0
100
AcDbCircle
10
-13.4703841816037
20
-1.7319479184152397e-13
30
0
40
1.3525499999999999
0
CIRCLE
5
249
100
AcDbEntity
8
0
100
AcDbCircle
10
-26.940768363206399
20
1.06581410364015e-13
30
0
40
1.7779999999999903
0
CIRCLE
5
250
100
AcDbEntity
8
0
100
AcDbCircle
10
-40.411152544810292
20
-1.7319479184152397e-13
30
0
40
1.3525499999999999
0
CIRCLE
5
251
100
AcDbEntity
8
0
100
AcDbCircle
10
-53.881536726414197
20
1.06581410364015e-13
30
0
40
1.7779999999999903
0
CIRCLE
5
252
100
AcDbEntity
8
0
100
AcDbCircle
10
-67.351920908017703
20
-1.7763568394002502e-13
30
0
40
1.3525499999999899
0
CIRCLE
5
253
100
AcDbEntity
8
0
100
AcDbCircle
10
-26.940768363207003
20
107.76307345282902
30
0
40
1.7779999999999903
0
CIRCLE
5
254
100
AcDbEntity
8
0
100
AcDbCircle
10
-26.940768363206899
20
94.292689271225214
30
0
40
1.3525499999999999
0
CIRCLE
5
255
100
AcDbEntity
8
0
100
AcDbCircle
10
-26.940768363206399
20
80.822305089621395
30
0
40
1.7779999999999903
0
CIRCLE
5
256
100
AcDbEntity
8
0
100
AcDbCircle
10
-26.9407683632068
20
67.351920908017803
30
0
40
1.3525499999999899
0
CIRCLE
5
257
100
AcDbEntity
8
0
100
AcDbCircle
10
-26.940768363206399
20
53.881536726414197
30
0
40
1.7779999999999903
0
CIRCLE
5
258
100
AcDbEntity
8
0
100
AcDbCircle
10
-26.940768363206701
20
40.411152544810996
30
0
40
1.3525499999999999
0
CIRCLE
5
259
100
AcDbEntity
8
0
100
AcDbCircle
10
-26.940768363206601
20
26.940768363206899
30
0
40
1.7779999999999903
0
CIRCLE
5
260
100
AcDbEntity
8
0
100
AcDbCircle
10
-26.940768363206701
20
13.470384181603199
30
0
40
1.3525499999999999
0
CIRCLE
5
261
100
AcDbEntity
8
0
100
AcDbCircle
10
-107.76307345282902
20
13.470384181603301
30
0
40
1.3525499999999899
0
CIRCLE
5
262
100
AcDbEntity
8
0
100
AcDbCircle
10
-40.411152544810292
20
13.4703841816037
30
0
40
1.7779999999999903
0
CIRCLE
5
263
100
AcDbEntity
8
0
100
AcDbCircle
10
-67.351920908017306
20
13.470384181603501
30
0
40
1.7779999999999903
0
CIRCLE
5
264
100
AcDbEntity
8
0
100
AcDbCircle
10
-94.292689271225086
20
13.470384181603301
30
0
40
1.7779999999999903
0
CIRCLE
5
265
100
AcDbEntity
8
0
100
AcDbCircle
10
-53.881536726413906
20
13.470384181603301
30
0
40
1.3525499999999899
0
CIRCLE
5
266
100
AcDbEntity
8
0
100
AcDbCircle
10
-80.822305089621395
20
13.470384181603301
30
0
40
1.3525500000000099
0
CIRCLE
5
267
100
AcDbEntity
8
0
100
AcDbCircle
10
-94.292689271225086
20
80.822305089621494
30
0
40
1.3525500000000099
0
CIRCLE
5
268
100
AcDbEntity
8
0
100
AcDbCircle
10
-80.822305089621494
20
94.292689271225214
30
0
40
1.3525500000000099
0
CIRCLE
5
269
100
AcDbEntity
8
0
100
AcDbCircle
10
-67.351920908017703
20
107.76307345282902
30
0
40
1.3525499999999899
0
CIRCLE
5
270
100
AcDbEntity
8
0
100
AcDbCircle
10
-67.351920908017703
20
80.822305089621494
30
0
40
1.3525499999999899
0
CIRCLE
5
271
100
AcDbEntity
8
0
100
AcDbCircle
10
-107.76307345282902
20
67.351920908018002
30
0
40
1.3525499999999899
0
CIRCLE
5
272
100
AcDbEntity
8
0
100
AcDbCircle
10
-40.411152544810292
20
107.76307345282902
30
0
40
1.3525499999999999
0
CIRCLE
5
273
100
AcDbEntity
8
0
100
AcDbCircle
10
-40.411152544810292
20
80.822305089621494
30
0
40
1.3525499999999999
0
CIRCLE
5
274
100
AcDbEntity
8
0
100
AcDbCircle
10
-53.881536726413799
20
67.351920908017803
30
0
40
1.3525499999999899
0
CIRCLE
5
275
100
AcDbEntity
8
0
100
AcDbCircle
10
-94.292689271225086
20
53.881536726414403
30
0
40
1.3525499999999899
0
CIRCLE
5
276
100
AcDbEntity
8
0
100
AcDbCircle
10
-107.76307345282902
20
40.411152544810996
30
0
40
1.3525499999999899
0
CIRCLE
5
277
100
AcDbEntity
8
0
100
AcDbCircle
10
-40.411152544810292
20
53.881536726414403
30
0
40
1.3525499999999999
0
CIRCLE
5
278
100
AcDbEntity
8
0
100
AcDbCircle
10
-40.411152544810506
20
94.292689271225612
30
0
40
1.7779999999999903
0
CIRCLE
5
279
100
AcDbEntity
8
0
100
AcDbCircle
10
-40.411152544810506
20
67.351920908018101
30
0
40
1.7779999999999903
0
CIRCLE
5
280
100
AcDbEntity
8
0
100
AcDbCircle
10
-40.411152544810292
20
40.411152544810598
30
0
40
1.7779999999999903
0
CIRCLE
5
281
100
AcDbEntity
8
0
100
AcDbCircle
10
-67.351920908017306
20
40.411152544810804
30
0
40
1.7779999999999903
0
CIRCLE
5
282
100
AcDbEntity
8
0
100
AcDbCircle
10
-94.292689271225086
20
40.411152544810996
30
0
40
1.7779999999999903
0
CIRCLE
5
283
100
AcDbEntity
8
0
100
AcDbCircle
10
-94.292689271225299
20
94.292689271225214
30
0
40
1.7779999999999903
0
CIRCLE
5
284
100
AcDbEntity
8
0
100
AcDbCircle
10
-94.292689271225214
20
67.351920908017902
30
0
40
1.7779999999999903
0
CIRCLE
5
285
100
AcDbEntity
8
0
100
AcDbCircle
10
-80.822305089621494
20
80.822305089621395
30
0
40
1.7779999999999903
0
CIRCLE
5
286
100
AcDbEntity
8
0
100
AcDbCircle
10
-107.76307345282902
20
80.822305089621395
30
0
40
1.7779999999999903
0
CIRCLE
5
287
100
AcDbEntity
8
0
100
AcDbCircle
10
-107.76307345282902
20
53.881536726414801
30
0
40
1.7779999999999903
0
CIRCLE
5
288
100
AcDbEntity
8
0
100
AcDbCircle
10
-80.822305089621395
20
53.881536726414801
30
0
40
1.7779999999999903
0
CIRCLE
5
289
100
AcDbEntity
8
0
100
AcDbCircle
10
-80.822305089621494
20
107.76307345282902
30
0
40
1.7779999999999903
0
CIRCLE
5
290
100
AcDbEntity
8
0
100
AcDbCircle
10
-67.351920908017306
20
67.351920908017604
30
0
40
1.7779999999999903
0
CIRCLE
5
291
100
AcDbEntity
8
0
100
AcDbCircle
10
-67.351920908017405
20
94.292689271225001
30
0
40
1.7779999999999903
0
CIRCLE
5
292
100
AcDbEntity
8
0
100
AcDbCircle
10
-53.881536726414197
20
80.822305089621395
30
0
40
1.7779999999999903
0
CIRCLE
5
293
100
AcDbEntity
8
0
100
AcDbCircle
10
-53.881536726414197
20
53.881536726414197
30
0
40
1.7779999999999903
0
CIRCLE
5
294
100
AcDbEntity
8
0
100
AcDbCircle
10
-53.8815367264136
20
107.76307345282902
30
0
40
1.7779999999999903
0
CIRCLE
5
295
100
AcDbEntity
8
0
100
AcDbCircle
10
-53.881536726413906
20
40.411152544810996
30
0
40
1.3525499999999899
0
CIRCLE
5
296
100
AcDbEntity
8
0
100
AcDbCircle
10
-80.822305089621395
20
40.411152544810996
30
0
40
1.3525500000000099
0
CIRCLE
5
297
100
AcDbEntity
8
0
100
AcDbCircle
10
-67.351920908017703
20
53.881536726414403
30
0
40
1.3525499999999899
0
CIRCLE
5
298
100
AcDbEntity
8
0
100
AcDbCircle
10
-53.8815367264137
20
94.292689271225214
30
0
40
1.3525499999999899
0
CIRCLE
5
299
100
AcDbEntity
8
0
100
AcDbCircle
10
-80.822305089621494
20
67.351920908018101
30
0
40
1.3525500000000099
0
CIRCLE
5
300
100
AcDbEntity
8
0
100
AcDbCircle
10
-94.292689271225086
20
26.940768363207201
30
0
40
1.3525500000000099
0
CIRCLE
5
301
100
AcDbEntity
8
0
100
AcDbCircle
10
-67.351920908017703
20
26.940768363207201
30
0
40
1.3525499999999899
0
CIRCLE
5
302
100
AcDbEntity
8
0
100
AcDbCircle
10
-40.411152544810292
20
26.940768363207201
30
0
40
1.3525499999999999
0
CIRCLE
5
303
100
AcDbEntity
8
0
100
AcDbCircle
10
-80.822305089621395
20
26.940768363207297
30
0
40
1.7779999999999903
0
CIRCLE
5
304
100
AcDbEntity
8
0
100
AcDbCircle
10
-53.881536726414005
20
26.940768363206899
30
0
40
1.7779999999999903
0
CIRCLE
5
305
100
AcDbEntity
8
0
100
AcDbCircle
10
-107.76307345282902
20
26.940768363207201
30
0
40
1.7779999999999903
0
CIRCLE
5
306
100
AcDbEntity
8
0
100
AcDbCircle
10
-13.4703841816037
20
13.4703841816037
30
0
40
1.7779999999999903
0
CIRCLE
5
307
100
AcDbEntity
8
0
100
AcDbCircle
10
-13.4703841816037
20
107.76307345282902
30
0
40
1.3525499999999999
0
CIRCLE
5
308
100
AcDbEntity
8
0
100
AcDbCircle
10
-13.4703841816037
20
80.822305089621494
30
0
40
1.3525499999999999
0
CIRCLE
5
309
100
AcDbEntity
8
0
100
AcDbCircle
10
-13.4703841816037
20
53.881536726414403
30
0
40
1.3525499999999999
0
CIRCLE
5
310
100
AcDbEntity
8
0
100
AcDbCircle
10
-13.470384181603405
20
94.292689271225612
30
0
40
1.7779999999999903
0
CIRCLE
5
311
100
AcDbEntity
8
0
100
AcDbCircle
10
-13.470384181603405
20
67.351920908018101
30
0
40
1.7779999999999903
0
CIRCLE
5
312
100
AcDbEntity
8
0
100
AcDbCircle
10
-13.4703841816037
20
40.411152544810598
30
0
40
1.7779999999999903
0
CIRCLE
5
313
100
AcDbEntity
8
0
100
AcDbCircle
10
-13.4703841816037
20
26.940768363207201
30
0
40
1.3525499999999999
0
CIRCLE
5
314
100
AcDbEntity
8
0
100
AcDbCircle
10
-80.822305089621395
20
-4.7961634663806803e-13
30
0
40
1.7779999999999903
0
CIRCLE
5
315
100
AcDbEntity
8
0
100
AcDbCircle
10
-26.940768363207003
20
-107.76307345282902
30
0
40
1.7779999999999903
0
CIRCLE
5
316
100
AcDbEntity
8
0
100
AcDbCircle
10
-26.940768363206899
20
-94.292689271225214
30
0
40
1.3525499999999999
0
CIRCLE
5
317
100
AcDbEntity
8
0
100
AcDbCircle
10
-26.940768363206399
20
-80.822305089621395
30
0
40
1.7779999999999903
0
CIRCLE
5
318
100
AcDbEntity
8
0
100
AcDbCircle
10
-26.9407683632068
20
-67.351920908017803
30
0
40
1.3525499999999899
0
CIRCLE
5
319
100
AcDbEntity
8
0
100
AcDbCircle
10
-26.940768363206399
20
-53.881536726414197
30
0
40
1.7779999999999903
0
CIRCLE
5
320
100
AcDbEntity
8
0
100
AcDbCircle
10
-26.940768363206701
20
-40.411152544810996
30
0
40
1.3525499999999999
0
CIRCLE
5
321
100
AcDbEntity
8
0
100
AcDbCircle
10
-26.940768363206601
20
-26.940768363206899
30
0
40
1.7779999999999903
0
CIRCLE
5
322
100
AcDbEntity
8
0
100
AcDbCircle
10
-26.940768363206701
20
-13.470384181603199
30
0
40
1.3525499999999999
0
CIRCLE
5
323
100
AcDbEntity
8
0
100
AcDbCircle
10
-107.76307345282902
20
-13.470384181603301
30
0
40
1.3525499999999899
0
CIRCLE
5
324
100
AcDbEntity
8
0
100
AcDbCircle
10
-40.411152544810292
20
-13.4703841816037
30
0
40
1.7779999999999903
0
CIRCLE
5
325
100
AcDbEntity
8
0
100
AcDbCircle
10
-67.351920908017306
20
-13.470384181603501
30
0
40
1.7779999999999903
0
CIRCLE
5
326
100
AcDbEntity
8
0
100
AcDbCircle
10
-94.292689271225086
20
-13.470384181603301
30
0
40
1.7779999999999903
0
CIRCLE
5
327
100
AcDbEntity
8
0
100
AcDbCircle
10
-53.881536726413906
20
-13.470384181603301
30
0
40
1.3525499999999899
0
CIRCLE
5
328
100
AcDbEntity
8
0
100
AcDbCircle
10
-80.822305089621395
20
-13.470384181603301
30
0
40
1.3525500000000099
0
CIRCLE
5
329
100
AcDbEntity
8
0
100
AcDbCircle
10
-94.292689271225086
20
-80.822305089621494
30
0
40
1.3525500000000099
0
CIRCLE
5
330
100
AcDbEntity
8
0
100
AcDbCircle
10
-80.822305089621494
20
-94.292689271225214
30
0
40
1.3525500000000099
0
CIRCLE
5
331
100
AcDbEntity
8
0
100
AcDbCircle
10
-67.351920908017703
20
-107.76307345282902
30
0
40
1.3525499999999899
0
CIRCLE
5
332
100
AcDbEntity
8
0
100
AcDbCircle
10
-67.351920908017703
20
-80.822305089621494
30
0
40
1.3525499999999899
0
CIRCLE
5
333
100
AcDbEntity
8
0
100
AcDbCircle
10
-107.76307345282902
20
-67.351920908018002
30
0
40
1.3525499999999899
0
CIRCLE
5
334
100
AcDbEntity
8
0
100
AcDbCircle
10
-40.411152544810292
20
-107.76307345282902
30
0
40
1.3525499999999999
0
CIRCLE
5
335
100
AcDbEntity
8
0
100
AcDbCircle
10
-40.411152544810292
20
-80.822305089621494
30
0
40
1.3525499999999999
0
CIRCLE
5
336
100
AcDbEntity
8
0
100
AcDbCircle
10
-53.881536726413799
20
-67.351920908017803
30
0
40
1.3525499999999899
0
CIRCLE
5
337
100
AcDbEntity
8
0
100
AcDbCircle
10
-94.292689271225086
20
-53.881536726414403
30
0
40
1.3525499999999899
0
CIRCLE
5
338
100
AcDbEntity
8
0
100
AcDbCircle
10
-107.76307345282902
20
-40.411152544810996
30
0
40
1.3525499999999899
0
CIRCLE
5
339
100
AcDbEntity
8
0
100
AcDbCircle
10
-40.411152544810292
20
-53.881536726414403
30
0
40
1.3525499999999999
0
CIRCLE
5
340
100
AcDbEntity
8
0
100
AcDbCircle
10
-40.411152544810506
20
-94.292689271225612
30
0
40
1.7779999999999903
0
CIRCLE
5
341
100
AcDbEntity
8
0
100
AcDbCircle
10
-40.411152544810506
20
-67.351920908018101
30
0
40
1.7779999999999903
0
CIRCLE
5
342
100
AcDbEntity
8
0
100
AcDbCircle
10
-40.411152544810292
20
-40.411152544810598
30
0
40
1.7779999999999903
0
CIRCLE
5
343
100
AcDbEntity
8
0
100
AcDbCircle
10
-67.351920908017306
20
-40.411152544810804
30
0
40
1.7779999999999903
0
CIRCLE
5
344
100
AcDbEntity
8
0
100
AcDbCircle
10
-94.292689271225086
20
-40.411152544810996
30
0
40
1.7779999999999903
0
CIRCLE
5
345
100
AcDbEntity
8
0
100
AcDbCircle
10
-94.292689271225299
20
-94.292689271225214
30
0
40
1.7779999999999903
0
CIRCLE
5
346
100
AcDbEntity
8
0
100
AcDbCircle
10
-94.292689271225214
20
-67.351920908017902
30
0
40
1.7779999999999903
0
CIRCLE
5
347
100
AcDbEntity
8
0
100
AcDbCircle
10
-80.822305089621494
20
-80.822305089621395
30
0
40
1.7779999999999903
0
CIRCLE
5
348
100
AcDbEntity
8
0
100
AcDbCircle
10
-107.76307345282902
20
-80.822305089621395
30
0
40
1.7779999999999903
0
CIRCLE
5
349
100
AcDbEntity
8
0
100
AcDbCircle
10
-107.76307345282902
20
-53.881536726414801
30
0
40
1.7779999999999903
0
CIRCLE
5
350
100
AcDbEntity
8
0
100
AcDbCircle
10
-80.822305089621395
20
-53.881536726414801
30
0
40
1.7779999999999903
0
CIRCLE
5
351
100
AcDbEntity
8
0
100
AcDbCircle
10
-80.822305089621494
20
-107.76307345282902
30
0
40
1.7779999999999903
0
CIRCLE
5
352
100
AcDbEntity
8
0
100
AcDbCircle
10
-67.351920908017306
20
-67.351920908017604
30
0
40
1.7779999999999903
0
CIRCLE
5
353
100
AcDbEntity
8
0
100
AcDbCircle
10
-67.351920908017405
20
-94.292689271225001
30
0
40
1.7779999999999903
0
CIRCLE
5
354
100
AcDbEntity
8
0
100
AcDbCircle
10
-53.881536726414197
20
-80.822305089621395
30
0
40
1.7779999999999903
0
CIRCLE
5
355
100
AcDbEntity
8
0
100
AcDbCircle
10
-53.881536726414197
20
-53.881536726414197
30
0
40
1.7779999999999903
0
CIRCLE
5
356
100
AcDbEntity
8
0
100
AcDbCircle
10
-53.8815367264136
20
-107.76307345282902
30
0
40
1.7779999999999903
0
CIRCLE
5
357
100
AcDbEntity
8
0
100
AcDbCircle
10
-53.881536726413906
20
-40.411152544810996
30
0
40
1.3525499999999899
0
CIRCLE
5
358
100
AcDbEntity
8
0
100
AcDbCircle
10
-80.822305089621395
20
-40.411152544810996
30
0
40
1.3525500000000099
0
CIRCLE
5
359
100
AcDbEntity
8
0
100
AcDbCircle
10
-67.351920908017703
20
-53.881536726414403
30
0
40
1.3525499999999899
0
CIRCLE
5
360
100
AcDbEntity
8
0
100
AcDbCircle
10
-53.8815367264137
20
-94.292689271225214
30
0
40
1.3525499999999899
0
CIRCLE
5
361
100
AcDbEntity
8
0
100
AcDbCircle
10
-80.822305089621494
20
-67.351920908018101
30
0
40
1.3525500000000099
0
CIRCLE
5
362
100
AcDbEntity
8
0
100
AcDbCircle
10
-94.292689271225086
20
-26.940768363207201
30
0
40
1.3525500000000099
0
CIRCLE
5
363
100
AcDbEntity
8
0
100
AcDbCircle
10
-67.351920908017703
20
-26.940768363207201
30
0
40
1.3525499999999899
0
CIRCLE
5
364
100
AcDbEntity
8
0
100
AcDbCircle
10
-40.411152544810292
20
-26.940768363207201
30
0
40
1.3525499999999999
0
CIRCLE
5
365
100
AcDbEntity
8
0
100
AcDbCircle
10
-80.822305089621395
20
-26.940768363207297
30
0
40
1.7779999999999903
0
CIRCLE
5
366
100
AcDbEntity
8
0
100
AcDbCircle
10
-53.881536726414005
20
-26.940768363206899
30
0
40
1.7779999999999903
0
CIRCLE
5
367
100
AcDbEntity
8
0
100
AcDbCircle
10
-107.76307345282902
20
-26.940768363207201
30
0
40
1.7779999999999903
0
CIRCLE
5
368
100
AcDbEntity
8
0
100
AcDbCircle
10
-13.4703841816037
20
-13.4703841816037
30
0
40
1.7779999999999903
0
CIRCLE
5
369
100
AcDbEntity
8
0
100
AcDbCircle
10
-13.4703841816037
20
-107.76307345282902
30
0
40
1.3525499999999999
0
CIRCLE
5
370
100
AcDbEntity
8
0
100
AcDbCircle
10
-13.4703841816037
20
-80.822305089621494
30
0
40
1.3525499999999999
0
CIRCLE
5
371
100
AcDbEntity
8
0
100
AcDbCircle
10
-13.4703841816037
20
-53.881536726414403
30
0
40
1.3525499999999999
0
CIRCLE
5
372
100
AcDbEntity
8
0
100
AcDbCircle
10
-13.470384181603405
20
-94.292689271225612
30
0
40
1.7779999999999903
0
CIRCLE
5
373
100
AcDbEntity
8
0
100
AcDbCircle
10
-13.470384181603405
20
-67.351920908018101
30
0
40
1.7779999999999903
0
CIRCLE
5
374
100
AcDbEntity
8
0
100
AcDbCircle
10
-13.4703841816037
20
-40.411152544810598
30
0
40
1.7779999999999903
0
CIRCLE
5
375
100
AcDbEntity
8
0
100
AcDbCircle
10
-13.4703841816037
20
-26.940768363207201
30
0
40
1.3525499999999999
0
CIRCLE
5
376
100
AcDbEntity
8
0
100
AcDbCircle
10
94.292689271225086
20
1.6431300764452297e-13
30
0
40
1.3525499999999899
0
CIRCLE
5
377
100
AcDbEntity
8
0
100
AcDbCircle
10
107.76307345282902
20
4.7961634663806803e-13
30
0
40
1.7779999999999903
0
ENDSEC
0
SECTION
2
OBJECTS
0
DICTIONARY
5
C
100
AcDbDictionary
3
ACAD_GROUP
350
D
3
ACAD_MLINESTYLE
350
17
0
DICTIONARY
5
D
100
AcDbDictionary
0
DICTIONARY
5
1A
330
C
100
AcDbDictionary
0
DICTIONARY
5
17
100
AcDbDictionary
0
ENDSEC
0
EOF
